<svg width="1280" height="1052" viewBox="0 0 1280 1052" fill="none" xmlns="http://www.w3.org/2000/svg">
<g clip-path="url(#clip0_338_175)">
<rect width="1280" height="1052" fill="white"/>
<g clip-path="url(#clip1_338_175)">
<rect width="1280" height="1052" fill="url(#paint0_linear_338_175)"/>
<path d="M-15 205V-43L1297 -235C1350.33 -109.667 1433 127.4 1337 73C1241 18.6 1041 63.6667 953 93L585 317L-15 205Z" fill="url(#paint1_linear_338_175)"/>
<path d="M-89.5781 340.046C-74.2362 335.215 -58.571 331.981 -42.669 330.217C-55.1851 331.578 -67.7012 332.94 -80.2199 334.313C-53.7373 331.597 -27.1784 333.05 -0.969252 337.524C-13.3716 335.339 -25.7714 333.144 -38.1636 330.962C5.46258 338.668 47.3608 354.346 87.4471 373.813C76.4145 368.431 65.3819 363.049 54.3595 357.67C113.536 386.631 168.478 424.089 225.848 456.69C264.398 478.597 304.128 498.917 344.99 515.481C359.988 521.559 375.262 526.927 390.788 531.34C415.437 538.345 440.728 542.252 465.897 546.55C492.511 551.093 519.498 552.914 546.464 551.934C571.931 551.01 597.423 547.926 622.678 544.575C636.079 542.798 649.418 540.365 662.616 537.289C700.4 528.485 736.732 513.79 772.395 498.049C797.351 487.029 821.376 473.597 844.011 457.896C878.81 433.758 913.11 407.132 942.334 375.532C973.912 341.383 999.232 301.876 1027.7 265.015C1020.04 274.839 1012.39 284.652 1004.73 294.476C1015.5 280.692 1027.14 267.626 1040.85 257.097C1031.11 264.554 1021.37 272.021 1011.63 279.479C1020.18 273.107 1029.26 267.803 1038.99 263.778C1027.63 268.422 1016.27 273.065 1004.91 277.709C1012.84 274.594 1020.92 272.428 1029.33 271.45C1016.81 272.812 1004.3 274.174 991.78 275.546C998.286 274.933 1004.7 275.066 1011.16 276.076C998.755 273.892 986.355 271.697 973.963 269.515C978.096 270.276 982.065 271.341 986.039 272.777C1004.52 279.614 1023.17 281.121 1042.01 277.291C1060.75 277.01 1078.37 271.682 1094.86 261.321C1111.55 252.485 1125.12 240.121 1135.57 224.209C1148.46 210.213 1157.41 193.586 1162.4 174.315C1164.5 161.152 1166.62 147.991 1168.72 134.828C1169.53 107.904 1163.96 82.5891 1152 58.904C1145 48.6033 1138.01 38.2924 1131 27.9891C1114.07 8.92033 1093.81 -4.55014 1070.23 -12.4249C1051.23 -19.2835 1030.45 -22.9203 1010.41 -23.1847C990.411 -23.4489 969.451 -21.3992 949.965 -15.9551C934.747 -11.6994 920.092 -4.64749 905.542 1.51033C901.563 3.19365 897.654 4.98159 893.847 7.0551C875.911 16.8441 859.502 30.5499 843.849 43.6662C836.7 49.664 830.111 56.4095 823.916 63.4819C809.894 79.5012 796.997 96.6923 784.242 113.833C772.683 129.368 761.926 145.55 750.083 160.84C757.741 151.016 765.396 141.203 773.054 131.379C751.1 159.471 725.83 184.377 698.017 205.824C707.756 198.367 717.497 190.899 727.236 183.442C696.577 206.891 663.161 225.972 627.946 240.451C639.306 235.807 650.666 231.164 662.026 226.52C625.143 241.51 586.587 251.354 547.325 255.658C559.841 254.296 572.357 252.934 584.876 251.562C547.919 255.451 510.661 254.388 474.056 247.943C486.458 250.127 498.858 252.322 511.25 254.504C469.803 247.011 430.144 232.169 392.036 213.624C403.069 219.005 414.101 224.387 425.124 229.766C363.538 199.57 306.404 160.529 246.571 126.821C207.153 104.619 166.385 84.0699 124.373 67.9415C81.4824 51.4724 36.3378 41.921 -8.97266 36.5963C-27.3757 34.4372 -45.9832 33.9058 -64.4594 35.4334C-94.8009 37.9345 -125.517 40.677 -154.837 49.9143C-173.287 53.9185 -189.512 62.297 -203.521 75.0372C-219.171 85.0451 -231.704 98.6012 -241.107 115.688C-251.939 132.468 -258.114 150.769 -259.612 170.596C-264.446 190.286 -264.259 210.137 -259.053 230.159C-254.717 242.194 -250.39 254.227 -246.054 266.262C-234.292 289.086 -218.066 307.488 -197.38 321.446C-186.348 326.828 -175.315 332.209 -164.293 337.588C-139.604 345.514 -114.699 346.344 -89.5502 340.064L-89.5781 340.046Z" fill="url(#paint2_linear_338_175)"/>
<path d="M-123.963 187.977C-53.1534 165.544 22.3061 178.824 89.8932 205.676C164.488 235.314 230.49 281.335 299.761 321.133C364.485 358.311 433.252 389.331 508.608 394.648C572.388 399.15 636.64 387.65 695.543 362.92C755.1 337.92 808.808 298.837 850.821 249.748C856.191 243.481 861.355 237.042 866.349 230.463C868.733 227.323 874.023 227.899 876.585 230.366C879.698 233.351 879.026 237.519 876.676 240.612C836.745 293.208 784.282 336.03 725.131 365.219C667.181 393.811 602.942 409.814 538.267 410.105C506.158 410.249 473.912 406.553 442.74 398.813C403.741 389.132 366.461 373.152 330.851 354.709C258.455 317.213 192.222 268.629 118.413 233.769C53.3233 203.025 -21.3192 181.008 -93.6224 195.15C-102.517 196.886 -111.29 199.173 -119.938 201.904C-128.848 204.732 -132.837 190.792 -123.963 187.977Z" fill="#C7CCF4"/>
<rect x="791" y="52" width="162" height="37" rx="18.5" fill="#FAA92B"/>
<rect x="997" y="-13" width="74" height="48" rx="6" fill="#FFCFBB"/>
<rect opacity="0.7" x="876" y="22" width="165" height="49" rx="10" fill="#CAFFFF"/>
<circle cx="823.5" cy="-0.5" r="32.5" fill="#FF8700"/>
</g>
</g>
<defs>
<linearGradient id="paint0_linear_338_175" x1="1280" y1="1052" x2="1.07704e-05" y2="313" gradientUnits="userSpaceOnUse">
<stop stop-color="#FF6B00"/>
<stop offset="0.631311" stop-color="#FFC7AB"/>
<stop offset="1" stop-color="#CEFFC8"/>
</linearGradient>
<linearGradient id="paint1_linear_338_175" x1="683" y1="-7.00001" x2="683" y2="205" gradientUnits="userSpaceOnUse">
<stop stop-color="#5C67CC"/>
<stop offset="1" stop-color="#ADA9E4"/>
</linearGradient>
<linearGradient id="paint2_linear_338_175" x1="899.576" y1="215.729" x2="-54.4299" y2="231.161" gradientUnits="userSpaceOnUse">
<stop stop-color="#C5CDF6"/>
<stop offset="1" stop-color="#FC8B0D"/>
</linearGradient>
<clipPath id="clip0_338_175">
<rect width="1280" height="1052" fill="white"/>
</clipPath>
<clipPath id="clip1_338_175">
<rect width="1854" height="2020" fill="white" transform="translate(-396 -206)"/>
</clipPath>
</defs>
</svg>
