<svg xmlns="http://www.w3.org/2000/svg" width="376.53" height="267.02" viewBox="0 0 376.53 267.02"><defs><style>.cls-1{fill:#ceebf0;}.cls-2{fill:#d68d7b;}.cls-3{fill:#999;}.cls-4{fill:#c4796a;}.cls-5{fill:#b4e1e9;}.cls-6{fill:#eef7f8;}.cls-7{fill:#a7a5ab;}.cls-8{fill:#6cbbbb;}.cls-9{fill:#aaa;}.cls-10{fill:#2c323d;}.cls-11{fill:#66a39b;}.cls-12{fill:#edf3f3;}.cls-13{fill:#fff;}.cls-14{fill:#8fbdcb;}.cls-15{fill:#b5dbe1;}.cls-16{fill:#80b1bb;}.cls-17{fill:#507396;}.cls-18{fill:#f2a785;}.cls-19{fill:#d18a75;}.cls-20{fill:#e1b5a8;}.cls-21{fill:#e4bdb1;}.cls-22{fill:#c3e7f2;}.cls-23{fill:#549dc5;}.cls-24{fill:#8e7478;}.cls-25{opacity:0.8;}.cls-26{fill:#547f3a;}.cls-27{fill:#537f3a;}.cls-28{fill:#6e9b4b;}.cls-29{fill:#82a85b;}.cls-30{fill:#3b3e44;}.cls-31{fill:#474b57;}.cls-32{fill:#1b212b;}.cls-33{fill:#5b5a58;}.cls-34{fill:#7a5c5f;}.cls-35{fill:#5f4b4e;}.cls-36{fill:#e59a7f;}</style></defs><title>JS8</title><g id="Layer_2" data-name="Layer 2"><g id="Layer_1-2" data-name="Layer 1"><path class="cls-1" d="M359.17,173.75c-5.09-2.15-13.08-3.89-9.58-11.22,2.66-5.57,13-5.46,13.87-12.42,1.56-11.81-19.12-10.55-25.7-13-3.83-1.45-9.29-4.28-9.64-9.21-.51-7.18,6.8-6.87,10.58-10.25s5.12-6.79,3.87-12c-2.37-9.84-14.32-9.66-22.23-12.25-3.14-1-9.13-3-10-7.06-1.74-8.42,18.9-7.84,14.24-21.45-3.42-10-14.55-8.53-21.38-14-3.43-2.77-6.47-6.92-5.57-11.95,1.06-5.87,7.1-7.85,10.95-11.36,8.92-8.14-.82-10.16-7.8-13.72C280.74,3.55,210.55,0,194.18,0,167.5,0,60.61,4.76,63.51,24.26c1.85,12.44,18.88,10.41,18.28,23-.55,11.37-17.28,9.59-24.42,11.16-12.17,2.68-25,16.26-10.09,24.38C54.81,86.9,63.7,90.56,59.78,101c-3.62,9.64-18.8,12-27.15,14.57-4.4,1.36-9.68.62-12.25,5.47-2.65,5,.2,10.66,4.59,13.25,5.09,3,16.15,3,18.11,10.05,1.57,5.58-3.54,10.61-7.71,12.16-8.77,3.26-22.73-1.32-27.31,10.23-6.12,15.46,13.78,14.47,16.47,26.1C26.87,203,15.64,205.59,9,208.34c-10.71,4.45-10.58,18.71.78,22.52,4.66,1.56,9.19,0,13.77,2.63,6,3.49,7.76,8.94,2.29,14.16-1.95,1.86-5,1.3-6.57,3.54-4.38,6.38,2,15.61,8.25,13.65,8.6-2.69,17-6.28,26.14-6.13,3.48.06,7,.18,10.44.28l27,.73q35.37,1,70.72,1.93,39.31,1,78.63,1.91c23.07.49,46.14.94,69.22,1.15,12.33.11,24.66.4,37-.07,10.78-.41,25.63-3,26.23-15.53.17-3.68,1.44-7.44.13-10.94-2.3-6.17-3.3-9.17-5.3-12.17-1-1.53-3.45-3.6-4.57-5.15-4.16-5.75-10.58-10.55-3.61-18.5,3.83-4.36,10.71-4.91,13.14-10.73C377.64,179.76,367.29,177.18,359.17,173.75Z"/><path class="cls-2" d="M217.14,130.42l-1.66-1.5c.31-1.06,1.32-1.33,1.4-2.32-7.9-.89-10.36-18.61-10.82-26-.29-4.61-.29-8,.54-8.13C195.07,94,181.52,79.81,175.92,70.81c-4.59,7.39-2.09,15.89-2.88,24.07-.57,5.82-.34,17.59-4.32,22.2-1.34,1.55-4.28,2.39-5.94,3.69-2.87,2.25-9.36,5.24-12.85,6.69-4,1.66-3.77,1.1-7.93,1.73,2.93,3.89,9.57,5.83,13.54,8.9a37.87,37.87,0,0,1,7.31,7.65c6.23,8.44,11.27,18.17,22,21.55,11.35,3.58,24.48,1,32-8.95,4.53-6,7.05-13.11,5.53-19.48A16.14,16.14,0,0,0,217.14,130.42Z"/><path class="cls-3" d="M150.93,134.05c-.54-18.19-19.63-9.21-27.31-.84-6.46,7-11.09,17.89-15.28,26.52A189.11,189.11,0,0,0,96.7,190c-4.45,15.4-6.37,32.53.1,47.66,3,7.09,11.68,12,18.17,15.33,14.21,7.23,40.42,5.3,35-17.15-4.34-18-13.5-33.38-14-52.62a47.84,47.84,0,0,1,3.85-20.4C143.73,153.45,151.24,144.79,150.93,134.05Z"/><path class="cls-2" d="M215.38,235.42c-1.09-.81-2.33-1.3-3.46-2a5.38,5.38,0,0,1,1.57-1c-5.76.38-10.76,3.42-15.89,5a24.14,24.14,0,0,1,11.24.06,42.36,42.36,0,0,1,4.15,1.28,38.37,38.37,0,0,1,4.59,2.27C218.41,239.08,216.94,236.57,215.38,235.42Z"/><path class="cls-2" d="M227.4,214.7c-.38-1.66-1.25-3.9-2.89-4-1.42-.08-7.15,5.22-13.34,6.67-7.83,1.83-15.8,3.39-23.84,3.16a40.51,40.51,0,0,1-13.48-3.12c-3.16,6.37-3.8,13.61-6.62,20.12,12.45,2.62,34.31.73,40.43-1.83S221.16,230,225,224.06c1.44-2.22,3-5.79,2.59-8.49C227.52,215.32,227.47,215,227.4,214.7Z"/><path class="cls-4" d="M225.55,211c-1.9,3.56-5.43,6.5-10.78,9l.62,1.44a24.31,24.31,0,0,0,10.8-9.13,5.72,5.72,0,0,1-.49-1.24Z"/><path class="cls-4" d="M215.62,224.11l.65,1.57c5.56-2.47,8.92-5.26,11.14-8.76a7.76,7.76,0,0,0,0-2.27C225.49,218.28,221.38,221.55,215.62,224.11Z"/><path class="cls-4" d="M220.55,226c-.45.32-5.84,2.82-5.94,2.55l.54,1.5c.14.42,6.22-2.76,6.75-3.14a14.7,14.7,0,0,0,2.4-2.13,8.22,8.22,0,0,0,2.06-4C226.13,221.44,223.52,223.93,220.55,226Z"/><path class="cls-4" d="M226.36,220.78a.17.17,0,0,0,0-.11A.52.52,0,0,1,226.36,220.78Z"/><path class="cls-5" d="M173.87,217.52c-.68,2.31.47,15.23-3.73,22.6,2.51,1.51,6.05.49,8.17-1.48,2.46-2.3,4-14.8,1.25-17.84C179.12,220.32,174,217.15,173.87,217.52Z"/><path class="cls-6" d="M259.11,208.73h0Z"/><path class="cls-7" d="M261.63,208.71h.09v0Z"/><path class="cls-8" d="M282.48,183l.12.13-.06-.11Z"/><path class="cls-8" d="M282.71,183.28l-.11-.12A.32.32,0,0,0,282.71,183.28Z"/><path class="cls-8" d="M276.72,167l.16.25-.09-.22Z"/><path class="cls-8" d="M277,167.38l-.11-.17A.56.56,0,0,0,277,167.38Z"/><path class="cls-8" d="M278.47,168.81l-.13-.21A.69.69,0,0,0,278.47,168.81Z"/><path class="cls-8" d="M278.22,168.4l.12.2-.06-.18Z"/><path class="cls-5" d="M318.56,232.84c-.6-.35-6.91-2-6.9-1.57,0,2.6,5.32,15.53,3.33,24.44,3.05.76,6.38-1.4,7.94-4.11C324.73,248.46,322.35,235.1,318.56,232.84Z"/><path class="cls-3" d="M258.44,159.61c-2.28-5.7-4.44-11.46-7.45-16.83-5.06-9-11.45-18.11-22-19.68-8.07-1.21-6.41,6.66-6.1,13,.54,11.26-7.56,23.46-2.57,34.51a5.87,5.87,0,0,0,1.51,2.1c2.95,2.52,7.48,3.75,10.67,6.3,8.91,7.15,18.1,18.24,17.77,30.9-.27,9.82-10.85,21.58-20.58,21.12-1,0-2.49,11.2-2.07,12.79,3.72,13.87,19.06,15,30.47,10.34,9.46-3.92,14.85-13,18.13-22.26,4.54-12.77-1-25.34-4.32-37.61C268.68,182.13,263.08,171.25,258.44,159.61Z"/><path class="cls-9" d="M225.65,153c-.08-5.78.27-11.9-1.37-17.5-1.8-6.16-6.73-7.56-12.7-8.86l-1.46-.35-.54.37c-5.58,3.5-12.1,6-18.67,6a39,39,0,0,1-11-2.3,25.27,25.27,0,0,1-9.26-5.86,16,16,0,0,1-2.25-3,9.23,9.23,0,0,0-2.64,2.1,14.86,14.86,0,0,0-2.86,6.14c-.62,2.23-1.57,4.45-2,6.71a101.3,101.3,0,0,0-1.54,14.95,47.93,47.93,0,0,0-.29,6.77,24,24,0,0,1,.26,4.57,137.28,137.28,0,0,0,.64,28.8c1.45,12,3.61,24.6,3.41,36.94a54.26,54.26,0,0,1,3.12,14.06c11.19,0,22.39-.09,33.58-.27,7.53-.12,15.06-.26,22.59-.37-2.75-8.67-2.77-19.76-2.86-28.92-.12-11.2,2.09-22.94,3-34.15C223.41,170.17,225.76,161.94,225.65,153Z"/><path class="cls-9" d="M168.89,172.56c-.56-3.6-2.31-6.57-3.39-10-3-9.6-.37-20.59,2.23-30.54,1.14-4.39.7-11.8-.14-16.16-6.05-.55-15.26,3-21,5.2a14.25,14.25,0,0,0-2.32,1.11c-6.91,4.15-5.86,12-6.36,18.83-.69,9.31-.39,18.65-.5,28,0,3.81,0,7.62,0,11.44,0,6.3-.46,13.05.82,19.14,2.46,11.71,25.43,7.25,33.33,7.14.67-5.46-1-12.71-1.56-18.11S169.69,177.79,168.89,172.56Z"/><path class="cls-9" d="M237.77,124.94c-1.08-1.93-5.31-4.21-7.39-5.18-3.1-1.44-16.53-3.11-22-4.76,1,3.37,5,5.74,5.63,9.19q.1.61.18,1.2a5.51,5.51,0,0,1,.1,2,8.11,8.11,0,0,1-.24,1.77c-1,11.44-.93,77.7-1.55,89.61-.21,4.12-8.49,8.84-8.69,13-.15,3.15-1.43,8.28-.06,11.23,2.85,6.08,16.79,4,21.81,2.83,8.74-2.09,17.06-10.53,17.56-18.11.61-9.23-.35-26.5,0-35.72C243.5,180.76,242.88,134.06,237.77,124.94Z"/><path class="cls-9" d="M226.57,147.65a47.76,47.76,0,0,0-1.58-6.34c-1.29-5.16-1.66-10.5-4-15.32-1.83-3.81-7.37-9.08-12.74-10.49,1.4,4.87,2.45,8.87,1.17,11.26-3,5.54-4.57,5.47-.47,56.09,1.5-.87,5.54,1.62,7.86-3s6.25-19.67,6.13-20.65c-.23-2-2.8-3.73-4-5.18,2.37-2.12,4.55-4.84,7.62-5.93C226.6,148,226.59,147.81,226.57,147.65Z"/><path class="cls-10" d="M37.71,222.92h0S37.71,222.89,37.71,222.92Z"/><path class="cls-11" d="M331.94,224.28c-3.08.14-15.78,0-23.09,0-2,0-2.56,2.11-2.57,3.42l2.65,29.39h25.46c.37-7.33.76-21.64.88-28.37C335.33,225.22,334.13,224.18,331.94,224.28Z"/><path class="cls-12" d="M309.05,249.27c-5.93.2-8.17-6.9-7.93-10.8.26-4.08,4.48-2.26,6.74-.51,1.07.82,2.65-.51,1.58-1.34-3.26-2.52-9-4.33-10.37.69s2.54,14.11,10,13.85C310.49,251.11,310.5,249.22,309.05,249.27Z"/><path class="cls-11" d="M309,248.44a5.54,5.54,0,0,1-4.36-1.84,11.78,11.78,0,0,1-2.71-8.08c.09-1.49.74-1.69,1.36-1.69a7.94,7.94,0,0,1,4,1.79,2.08,2.08,0,0,0,3.19-.87A1.58,1.58,0,0,0,310,236a12.31,12.31,0,0,0-6.85-2.67,4.72,4.72,0,0,0-4.84,3.81c-.86,3.24.2,7.67,2.59,10.77a9.88,9.88,0,0,0,7.89,4.13h.34a1.84,1.84,0,0,0,1.88-1.84A1.74,1.74,0,0,0,309,248.44Zm0,1.9a8.19,8.19,0,0,1-6.86-3.48c-2.09-2.72-3-6.56-2.3-9.34A3.07,3.07,0,0,1,303.1,235a10.55,10.55,0,0,1,5.83,2.32.49.49,0,0,1-.56,0,9.46,9.46,0,0,0-5.06-2.13c-.85,0-2.83.31-3,3.24a13.47,13.47,0,0,0,3.16,9.32,7.21,7.21,0,0,0,5.35,2.36h.29c.15,0,.21,0,.21.08S309.09,250.33,309,250.34Z"/><path class="cls-13" d="M331.82,225.14a2.34,2.34,0,0,0-2.7,1.92c-.36,8.61-.26,15.92-1,25.82-.23,3,4.22,3.75,4.63.76,1.17-8.56.65-17.21,1-25.82A2.37,2.37,0,0,0,331.82,225.14Z"/><path class="cls-14" d="M239.08,170.2c-5.11.13-14.94-.06-20.05-.06-25.28,0-47.35.14-72.62,0-18.57-.1-27.08-.8-26.58,23,.11,5.12,0,50.47,0,56.73,0,5.49,2,8.91,8.12,8.9,21.88,0,93.91-.23,118.46-.34,5.21,0,8.29-3.26,8.29-8.28V192.3C254.73,171.45,248.65,170,239.08,170.2Z"/><path class="cls-15" d="M146.18,171.79c-2.48-1.09-10.39-.08-12.84,1-5.47,2.4-6.91,7.4-6.75,13,.3,10.33-.21,42.86,0,49.5.11,3.42,0,12.68,2.53,15.1l0,0c5.19,4.82,4.18-14.78,4.25-17.26.23-8.22.41-16.44.37-24.66,0-4.34-.31-8.69-.27-13,0-5.25-.4-14.67,5.41-17.07.66-.27,8.4-1.72,8.35-.82C147.36,175.51,148,172.57,146.18,171.79Z"/><path class="cls-13" d="M191.59,206.23a7.91,7.91,0,0,0-8,.61c-3.39,2.38-5.07,6.77-2.43,11,2.21,3.54,7.53,4.53,11.05,2.52C198.13,217,197,209.3,191.59,206.23Z"/><path class="cls-15" d="M237.68,171.2c-3.51.12-26.47.26-34.37.25q-20.4,0-40.82.16c-7.25.06-14.72-.22-22,.35-2.56.2-6.78.08-6.85,3-.05,2.06,2.33,2.35,4.42,2.59a133.09,133.09,0,0,0,14.7.42c19,0,38,0,57-.12,8-.06,16-.11,23.95-.31,3.39-.09,7.19.36,8.37-2.83a3.25,3.25,0,0,0,.15-.55C242.63,172.05,240.22,171.1,237.68,171.2Z"/><path class="cls-16" d="M241.53,247.21c-3.51.13-26.47.27-34.37.26q-20.41,0-40.82.15c-7.25.07-14.72-.21-22,.35-2.56.21-6.78.09-6.85,3-.06,2.06,2.33,2.35,4.42,2.59a133,133,0,0,0,14.7.42c19,0,38,0,57-.12,8-.06,16-.11,24-.32,3.39-.08,7.19.37,8.37-2.82a3.35,3.35,0,0,0,.15-.56C246.48,248.06,244.07,247.12,241.53,247.21Z"/><path class="cls-16" d="M248.73,177.32c-2.27.83-2.69,4.81-2.61,7.6.37,12.29,0,24.6,0,36.89-.05,9.1,3.95,24.14-8.73,25.69-.06,1.17-.66,4.2.33,5.1.67.59,4,.15,4.92.09a9.81,9.81,0,0,0,7.57-4.38c3.33-4.67,2.58-12.12,2.75-17.72.37-12.32.59-24.66.07-37C252.85,190.47,253.33,175.63,248.73,177.32Z"/><path class="cls-17" d="M213.24,76a5.72,5.72,0,0,1-1.08,2.18,1.23,1.23,0,0,0-.11,1.66,1.08,1.08,0,0,0,1.58.11,8.37,8.37,0,0,0,1.72-3.17A1.12,1.12,0,1,0,213.24,76Z"/><path class="cls-17" d="M208.68,86.55a21.66,21.66,0,0,0-.73,3.77,1.12,1.12,0,1,0,2.23.18,19,19,0,0,1,.61-3.18A1.12,1.12,0,1,0,208.68,86.55Z"/><path class="cls-17" d="M204.09,87.11a1.15,1.15,0,0,0-1.21,1.09,8.56,8.56,0,0,1-.59,2.38,1.12,1.12,0,1,0,2.11.78,11,11,0,0,0,.71-3A1.17,1.17,0,0,0,204.09,87.11Z"/><path class="cls-18" d="M199.13,41.44c-5.88-1.14-12.3,2.28-15.84,6.32s-3.86,8.11-4.88,12.93a16.36,16.36,0,0,1-3.11,6.6c-1.66,2.18-4.2,3.79-5.36,6.24a7.87,7.87,0,0,0-.39,6c.54,1.33,1.15,3.54,2.51,4.38,1,.62,2.1.54,3.18.91a4.69,4.69,0,0,1,2.21,1.91c1.53,2.09,2.22,4.57,3.76,6.65,2.9,3.9,8,6.07,12.75,7.48,3.92,1.15,8,2.58,12.21,1.93,4.56-.7,7.81-3.91,10.09-8,3.93-7,6.24-16.91,5.56-24.62-.59-6.63-1.38-16.09-6.41-21.22C211.86,45.41,204.19,42.43,199.13,41.44Z"/><path class="cls-19" d="M174.46,82.33l1.82.16c-.15-1.15-.25-2.32-.47-3.45C173.18,78.82,173.82,81,174.46,82.33Z"/><polygon class="cls-20" points="187.48 77.94 187.49 77.94 187.47 77.93 187.48 77.94"/><polygon class="cls-20" points="187.48 77.94 187.49 77.94 187.47 77.93 187.48 77.94"/><path class="cls-21" d="M180,72l0-.07A.24.24,0,0,0,180,72Z"/><path class="cls-22" d="M206.28,69.23l.14,0-.25.07Z"/><path class="cls-22" d="M206.17,69.25l-.11,0Z"/><polygon class="cls-20" points="186.29 75.38 186.3 75.38 186.29 75.37 186.29 75.38"/><path class="cls-21" d="M178.37,69l0-.08A.11.11,0,0,0,178.37,69Z"/><path class="cls-23" d="M171.76,124.15l0,0Z"/><path class="cls-24" d="M139.69,88.06Z"/><polygon class="cls-24" points="139.69 88.06 139.69 88.06 139.69 88.06 139.69 88.06"/><path class="cls-24" d="M139.69,88.06h0l0,0Z"/><g class="cls-25"><path class="cls-26" d="M61.49,217.47s13.86-5,17.35-16.25,2.57-14.49,7.93-18.28c6.4-4.51-11.54,2.21-13.66,4.81-3,3.7-4.3,10.19-5.56,14.2-1,3-5.6,10.22-5.6,10.22l-3,5Z"/><path class="cls-27" d="M50.9,217.07s-14.84-5.64-17.63-16.28-1.46-13.6-7-17.48c-6.65-4.64,12.54,2.86,14.64,5.42,3,3.64,3.78,9.74,4.8,13.54.77,2.87,5.21,9.86,5.21,9.86L53.72,217Z"/><path class="cls-28" d="M53.22,217.32S43.16,207,43,192s1.26-19.35-3.26-24.87c-5.95-7.24,10.46,9,11.62,12.89,3.12,10.35,1.33,12.07,1.42,17.44.06,4.07,1.44,13.1,1.44,13.1l1.34,7.12Z"/><path class="cls-28" d="M61.76,216.75s11.53-10.49,9.26-26.1c-2.3-15.79-.92-18.62,2.26-25.93,2.21-5.09-9.33,6.87-12.11,14.48-3.8,10.41-.94,11-.8,16.63.11,4.27.13,13.77.13,13.77l-1,7.4Z"/><path class="cls-29" d="M59.45,217a43.65,43.65,0,0,0,3.28-32.68c-5.38-18.83-4.31-22.43-2-31.65,1.62-6.44-9.41,9.44-11.23,19-2.5,13.06.86,13.43,2,20.22.87,5.15.73,15.49.73,15.49l.67,9.62Z"/><path class="cls-30" d="M38.82,265.4c8,.11,22.13,0,34.75.22,3.5-27.4,4.43-35.11,6.3-53.57-4.93-.18-37.3-.18-46.75-.18C33.42,213.14,37.75,252.48,38.82,265.4Z"/><path class="cls-31" d="M45.31,217.75c-.3-2-2.92-3.06-4.78-2.6a3.75,3.75,0,0,0-2.76,4.49c2,13.38,2.55,27,5.89,40.14,1.16,4.59,8.4,2.75,7.54-1.9C48.34,242.54,47.31,231.12,45.31,217.75Z"/><path class="cls-32" d="M68.56,218.91c-1.38,12.62-2.19,23.65-4.81,37.78-1.07,5.72,6.3,8.51,7.37,2.79,2.85-15.18,3.76-26.72,5.23-40.17C77,213.5,69.19,213.13,68.56,218.91Z"/></g><path class="cls-33" d="M373.94,258.31c-5-2.52-16.17-2.05-23.07-2.07-10.61,0-316.73.2-331.09.23-12.16,0-23.52,1.66-18.61,7.64,2.29,2.78,8.3,2.79,14.55,2.83q8.82,0,17.65.06,37.22,0,74.42,0,96.65-.06,193.29-.12,22.05,0,44.09,0c6.16,0,12.31,0,18.47,0,8.91,0,14.54-2.92,12.46-6.75A4.89,4.89,0,0,0,373.94,258.31Z"/><path class="cls-34" d="M226.14,39.65c-.28-1.21.49-3,.83-4.61a3.06,3.06,0,0,0-.16-2.39c-1.4-1.94-7.11,1.78-8.58,2.73,2.84-8-5.08-4.14-8.86-2.8-4.86,1.72-8.3,3.92-13.67,3.45-6.76-.6-15.21-2.28-21,2.35-6.66,5.36-6.55,19-4.3,26.38.61,2,.37,4.15,1.07,6.07,1.09,3,4.58,2.44,6.24,4.17,2.06,2.17-1.5,4.61,3,4-1-8,.18-13.31,1.65-21.71.65-3.75,0-4.93,3.48-6.2,3.61-1.32,8.83-2,12.53-.73,2,.73,2.93,2.42,4.74,3.39a21.16,21.16,0,0,0,10.38,2.31c5.19-.28,11.3-1.66,15.28-5.22,2.13-1.91,6.72-9.46,4-12.09C231.28,37.25,228.61,40,226.14,39.65Z"/><path class="cls-35" d="M206.69,52.37c-3.69-.46-6.33-2.36-9.7-3.69-4.69-1.84-15.16-.31-17.29,4.77-1.19,2.85-1,5.65-.93,8.59.18,6-7,.56-9.09-.69.34,3,.73,9.27,2.89,11.62,1.22,1.32,4.21.15,5.16,2,1.74,3.47-1.5,4.82,4,5-1-9,.4-10.6,1-19.63a4.91,4.91,0,0,1,1.58-3.73,9,9,0,0,1,3.9-1.83c2.73-.7,5.95-1.45,8.66-.28A21.52,21.52,0,0,0,203.73,56c10,1.18,29,.75,29-12.11a23.91,23.91,0,0,1-11.58,7.39A35.31,35.31,0,0,1,206.69,52.37Z"/><path class="cls-36" d="M197,88.2c-.38,0-.78,1.85-.71,1.86a.44.44,0,0,0,.2,0C196.9,89.89,197.58,88.18,197,88.2Z"/><path class="cls-36" d="M211.86,88.27a.42.42,0,0,0-.09.14c-.12.36.6,1.66.9,1.24C212.85,89.4,211.9,88.23,211.86,88.27Z"/><path class="cls-13" d="M208.61,90.48c-.13,0-1.17.16-1.3.17a18.88,18.88,0,0,1-5.28-.46,17.51,17.51,0,0,1-2.64-.67c-.47-.25-1.79-.49-2.12-1-.27.35.51.67.77,1,1.17,1.42,3.24,1.72,5.83,2.5,1.74.52,3.82.81,5.32,0a5.5,5.5,0,0,0,2.56-2.34,9,9,0,0,1,.48-.86C211.11,90.11,210.67,90,208.61,90.48Z"/></g></g></svg>